<?xml version="1.0" standalone="no"?>
<!DOCTYPE svg PUBLIC "-//W3C//DTD SVG 20010904//EN"
 "http://www.w3.org/TR/2001/REC-SVG-20010904/DTD/svg10.dtd">
<svg version="1.0" xmlns="http://www.w3.org/2000/svg"
 width="2000.000000pt" height="2000.000000pt" viewBox="0 0 2000.000000 2000.000000"
 preserveAspectRatio="xMidYMid meet">
<metadata>
Created by potrace 1.11, written by Peter Selinger 2001-2013
</metadata>
<g transform="translate(0.000000,2000.000000) scale(0.100000,-0.100000)"
fill="#000000" stroke="none">
<path d="M0 10000 l0 -10000 10000 0 10000 0 0 10000 0 10000 -10000 0 -10000
0 0 -10000z m13585 5405 c1040 -576 1891 -1048 1893 -1050 1 -1 -119 -220
-267 -486 -147 -266 -521 -941 -831 -1499 -309 -558 -699 -1260 -865 -1560
-166 -300 -555 -1002 -865 -1560 -310 -558 -837 -1509 -1171 -2112 -1290
-2326 -1829 -3299 -1915 -3453 l-88 -161 -348 193 c-191 106 -351 193 -355
193 -5 0 -100 -165 -212 -368 -112 -202 -205 -368 -206 -369 -2 -4 -3807 2105
-3817 2116 -4 4 308 576 693 1271 386 696 939 1693 1228 2215 290 523 1323
2386 2296 4140 972 1755 1771 3193 1774 3197 4 4 164 -80 356 -187 309 -171
351 -192 362 -178 7 9 101 177 210 373 188 340 198 357 218 345 11 -7 871
-484 1910 -1060z"/>
<path d="M11526 16005 c-92 -167 -169 -312 -170 -322 -1 -13 367 -221 1499
-850 825 -458 1499 -836 1498 -840 -1 -7 -131 -242 -1058 -1913 -422 -762
-869 -1567 -1220 -2200 -142 -256 -394 -710 -560 -1010 -166 -300 -555 -1002
-865 -1560 -310 -558 -699 -1261 -866 -1562 -336 -606 -905 -1632 -937 -1690
-11 -21 -19 -39 -16 -42 13 -11 587 -326 595 -326 5 0 70 112 145 248 75 136
812 1467 1639 2957 826 1491 1755 3165 2063 3720 308 556 721 1300 918 1655
196 355 531 958 743 1340 212 382 382 698 378 701 -12 12 -3586 1992 -3602
1996 -11 2 -63 -84 -184 -302z"/>
<path d="M10567 15938 c-8 -13 -153 -272 -321 -575 -168 -304 -443 -800 -611
-1103 -168 -302 -442 -797 -610 -1100 -168 -302 -442 -797 -610 -1100 -168
-302 -442 -796 -609 -1097 -167 -302 -419 -757 -561 -1013 -142 -256 -394
-711 -561 -1012 -348 -628 -779 -1404 -1220 -2200 -169 -304 -412 -743 -541
-976 -130 -233 -234 -425 -232 -426 2 -2 769 -428 1704 -946 935 -518 1747
-969 1805 -1001 57 -32 107 -55 111 -51 10 11 349 624 349 632 0 3 -676 381
-1502 839 -827 458 -1504 834 -1506 836 -2 2 1061 1922 3043 5495 1611 2903
2485 4482 2485 4485 0 2 -111 65 -247 140 -137 76 -271 151 -300 167 l-52 29
-14 -23z"/>
<path d="M10971 15002 c-326 -587 -688 -1240 -1213 -2187 -962 -1734 -877
-1582 -1988 -3585 -310 -558 -700 -1262 -868 -1565 -168 -302 -441 -795 -607
-1095 -166 -300 -343 -619 -393 -710 -51 -90 -88 -168 -84 -171 4 -4 585 -328
1292 -720 1615 -895 1610 -892 1614 -888 2 2 988 1779 2191 3949 1203 2170
2435 4390 2736 4934 302 544 548 990 546 991 -3 3 -2869 1591 -2892 1603 -19
9 -43 -31 -334 -556z"/>
</g>
</svg>
